<?xml version="1.0" encoding="utf-8"?>
<!-- Generator: Adobe Illustrator 16.0.0, SVG Export Plug-In . SVG Version: 6.00 Build 0)  -->
<!DOCTYPE svg PUBLIC "-//W3C//DTD SVG 1.1//EN" "http://www.w3.org/Graphics/SVG/1.1/DTD/svg11.dtd">
<svg version="1.1" id="Layer_1" xmlns="http://www.w3.org/2000/svg" xmlns:xlink="http://www.w3.org/1999/xlink" x="0px" y="0px"
	 width="32px" height="32px" viewBox="0 0 32 32" enable-background="new 0 0 32 32" xml:space="preserve">
<g>
	<path d="M24.984,8.121c2.762,0,5,2.237,5,5c0,1.788-0.947,3.347-2.359,4.229c0.814,0.119,1.588,0.369,2.297,0.73
		c1.273-1.268,2.062-3.022,2.062-4.962c0-3.866-3.133-7-7-7c-3.248,0-5.971,2.215-6.762,5.215c0.666,0.134,1.309,0.33,1.924,0.584
		C20.686,9.74,22.639,8.121,24.984,8.121z"/>
	<polygon points="8.843,8.805 11.109,7.17 13.376,8.805 12.518,6.141 14.785,4.487 11.98,4.479 11.109,1.816 10.232,4.479 
		7.427,4.487 9.693,6.141 	"/>
	<polygon points="0.807,14.057 2.1,13.127 3.391,14.057 2.9,12.539 4.193,11.598 2.593,11.592 2.1,10.073 1.598,11.592 0,11.598 
		1.291,12.539 	"/>
	<path d="M26.541,19.264c-0.746,0-1.479,0.154-2.156,0.445c-0.86-3.795-4.239-6.588-8.264-6.588c-3.061,0-5.854,1.646-7.354,4.262
		c-0.699-0.246-1.438-0.373-2.179-0.373C2.955,17.01,0,19.967,0,23.6c0,3.632,2.955,6.584,6.588,6.584h19.953
		c3.01,0,5.459-2.446,5.459-5.459C32,21.713,29.551,19.264,26.541,19.264z M26.447,28.241H6.671c-2.571,0-4.664-2.09-4.664-4.659
		c0-2.572,2.093-4.664,4.664-4.664c0.75,0,1.496,0.184,2.162,0.534l0.89,0.468l0.399-0.922c1.039-2.392,3.394-3.937,5.997-3.937
		c3.18,0,5.829,2.269,6.409,5.305l0.414,1.892l2.269-0.879c0.391-0.147,0.811-0.228,1.235-0.228c1.955,0,3.546,1.59,3.546,3.545
		S28.402,28.241,26.447,28.241z"/>
</g>
</svg>
