<?xml version="1.0" encoding="utf-8"?>
<!-- Generator: Adobe Illustrator 18.0.0, SVG Export Plug-In . SVG Version: 6.00 Build 0)  -->
<!DOCTYPE svg PUBLIC "-//W3C//DTD SVG 1.1//EN" "http://www.w3.org/Graphics/SVG/1.1/DTD/svg11.dtd">
<svg version="1.1" id="Layer_1" xmlns="http://www.w3.org/2000/svg" xmlns:xlink="http://www.w3.org/1999/xlink" x="0px" y="0px"
	 width="32px" height="32px" viewBox="0 0 32 32" enable-background="new 0 0 32 32" xml:space="preserve">
<g>
	<path d="M2,12.9v2C2,16,2.9,17,4,17h1v-6H4C2.9,11,2,11.8,2,12.9z"/>
	<path d="M28,4v1c-2.4,2.5-5.5,4.3-9,5c0-0.6-0.4-1-1-1H7c-0.6,0-1,0.4-1,1v8c0,0.6,0.4,1,1,1h1l3,9h7l-3-9h3c0.6,0,1-0.4,1-1
		c3.5,0.7,6.6,2.5,9,5v1h2V4L28,4L28,4z M17,13H8v-2h9V13z"/>
</g>
</svg>
