<?xml version="1.0" encoding="utf-8"?>
<!-- Generator: Adobe Illustrator 18.0.0, SVG Export Plug-In . SVG Version: 6.00 Build 0)  -->
<!DOCTYPE svg PUBLIC "-//W3C//DTD SVG 1.1//EN" "http://www.w3.org/Graphics/SVG/1.1/DTD/svg11.dtd">
<svg version="1.1" id="Layer_1" xmlns="http://www.w3.org/2000/svg" xmlns:xlink="http://www.w3.org/1999/xlink" x="0px" y="0px"
	 width="32px" height="32px" viewBox="0 0 32 32" enable-background="new 0 0 32 32" xml:space="preserve">
<g>
	<path d="M27,8h-5l-3-3h-6l-3,3H5.2C4.6,8,4,8.5,4,9.1V26c0,0.6,0.6,1,1.2,1H27c0.6,0,1-0.4,1-1V9.1C28,8.5,27.6,8,27,8z M16,24
		c-3.9,0-7-3.1-7-7s3.1-7,7-7s7,3.1,7,7S19.9,24,16,24z M26,12h-2v-2h2V12z"/>
	<path d="M16,17h-5c0,2.8,2.2,5,5,5s5-2.2,5-5s-2.2-5-5-5V17z"/>
</g>
</svg>
