<?xml version="1.0" encoding="utf-8"?>
<!-- Generator: Adobe Illustrator 16.0.0, SVG Export Plug-In . SVG Version: 6.00 Build 0)  -->
<!DOCTYPE svg PUBLIC "-//W3C//DTD SVG 1.1//EN" "http://www.w3.org/Graphics/SVG/1.1/DTD/svg11.dtd">
<svg version="1.1" id="Layer_1" xmlns="http://www.w3.org/2000/svg" xmlns:xlink="http://www.w3.org/1999/xlink" x="0px" y="0px"
	 width="32px" height="32px" viewBox="0 0 32 32" enable-background="new 0 0 32 32" xml:space="preserve">
<g>
	<path d="M19.336,5.902C15.625,2.19,9.61,2.191,5.9,5.902c-3.709,3.709-3.71,9.725,0,13.435c3.098,3.098,7.796,3.6,11.424,1.523
		l8.021,8.021l3.536-3.535l-8.021-8.021C22.936,13.697,22.434,9,19.336,5.902z M16.508,8.73c2.148,2.147,2.148,5.629,0,7.776
		c-2.149,2.148-5.63,2.147-7.778,0c-2.147-2.147-2.148-5.629,0-7.776C10.878,6.582,14.358,6.581,16.508,8.73z"/>
</g>
</svg>
