<?xml version="1.0" encoding="utf-8"?>
<!-- Generator: Adobe Illustrator 18.0.0, SVG Export Plug-In . SVG Version: 6.00 Build 0)  -->
<!DOCTYPE svg PUBLIC "-//W3C//DTD SVG 1.1//EN" "http://www.w3.org/Graphics/SVG/1.1/DTD/svg11.dtd">
<svg version="1.1" id="Layer_1" xmlns="http://www.w3.org/2000/svg" xmlns:xlink="http://www.w3.org/1999/xlink" x="0px" y="0px"
	 width="32px" height="32px" viewBox="0 0 32 32" enable-background="new 0 0 32 32" xml:space="preserve">
<path d="M27,5H5.2C4.6,5,4,5.5,4,6.1V26c0,0.6,0.6,1,1.2,1H27c0.6,0,1-0.4,1-1V6.1C28,5.5,27.6,5,27,5z M8,10H6V8h2V10z M8,14H6v-2
	h2V14z M26,10h-2V8h2V10z M26,14h-2v-2h2V14z M22,14H10V8h12V14z M8,20H6v-2h2V20z M8,24H6v-2h2V24z M26,20h-2v-2h2V20z M26,24h-2
	v-2h2V24z M22,24H10v-6h12V24z"/>
</svg>
