<?xml version="1.0" encoding="utf-8"?>
<!-- Generator: Adobe Illustrator 16.0.0, SVG Export Plug-In . SVG Version: 6.00 Build 0)  -->
<!DOCTYPE svg PUBLIC "-//W3C//DTD SVG 1.1//EN" "http://www.w3.org/Graphics/SVG/1.1/DTD/svg11.dtd">
<svg version="1.1" id="Layer_1" xmlns="http://www.w3.org/2000/svg" xmlns:xlink="http://www.w3.org/1999/xlink" x="0px" y="0px"
	 width="32px" height="32px" viewBox="0 0 32 32" enable-background="new 0 0 32 32" xml:space="preserve">
<g>
	<path d="M8.228,12.471L8.228,12.471c-1.169-1.169-1.169-3.072,0.001-4.242c1.169-1.17,3.072-1.17,4.241-0.001l4.95,4.95
		c1.17,1.17,1.17,3.071,0,4.242l-0.707,0.707l2.828,2.828l0.707-0.707c2.732-2.732,2.734-7.166,0-9.898l-4.949-4.95
		C12.565,2.666,8.133,2.667,5.399,5.4c-2.732,2.732-2.732,7.165,0,9.897L7.4,17.299C7.227,15.661,7.507,13.986,8.228,12.471z"/>
	<path d="M26.6,16.7l-2-1.999c0.174,1.639-0.105,3.312-0.826,4.829l-0.002-0.001c1.17,1.17,1.17,3.072,0,4.242s-3.072,1.17-4.242,0
		l-4.948-4.948c-1.17-1.17-1.17-3.073,0-4.242l0.707-0.708l-2.828-2.828l-0.707,0.707c-2.734,2.734-2.734,7.166,0,9.899l4.948,4.948
		c2.734,2.734,7.166,2.734,9.898,0C29.333,23.867,29.334,19.436,26.6,16.7z"/>
</g>
</svg>
