<?xml version="1.0" encoding="utf-8"?>
<!-- Generator: Adobe Illustrator 18.0.0, SVG Export Plug-In . SVG Version: 6.00 Build 0)  -->
<!DOCTYPE svg PUBLIC "-//W3C//DTD SVG 1.1//EN" "http://www.w3.org/Graphics/SVG/1.1/DTD/svg11.dtd">
<svg version="1.1" id="Layer_1" xmlns="http://www.w3.org/2000/svg" xmlns:xlink="http://www.w3.org/1999/xlink" x="0px" y="0px"
	 width="32px" height="32px" viewBox="1 1 32 32" enable-background="new 1 1 32 32" xml:space="preserve">
<g>
	<polygon points="31,11 31,10 29,10 29,14 31,14 31,13 33,13 33,11 	"/>
	<path d="M10,20l1.9,2.3c0.9,1,2.2,1.4,3.5,0.9L11,17L10,20z"/>
	<path d="M27.7,8H12v1h-2c-0.9,0-1.7,0.6-1.9,1.5L4,26c1.5-0.2,3-1.7,3.4-3.1L10,16l4,0v1c0,0.5,0.5,1,1,1s1-0.5,1-1v-1l3,0v1
		c0,0.5,0.5,1,1,1s1-0.5,1-1v-1l3,0v1c0,0.5,0.5,1,1,1s1-0.5,1-1v-1l2,0V8.3C28,8.1,27.9,8,27.7,8z M26,12H14v-2h12V12z"/>
	<polygon points="6,11 3.8,11 2.4,9.6 1,11 3,13 5.5,13 	"/>
</g>
</svg>
