<?xml version="1.0" encoding="utf-8"?>
<!-- Generator: Adobe Illustrator 18.0.0, SVG Export Plug-In . SVG Version: 6.00 Build 0)  -->
<!DOCTYPE svg PUBLIC "-//W3C//DTD SVG 1.1//EN" "http://www.w3.org/Graphics/SVG/1.1/DTD/svg11.dtd">
<svg version="1.1" id="Layer_1" xmlns="http://www.w3.org/2000/svg" xmlns:xlink="http://www.w3.org/1999/xlink" x="0px" y="0px"
	 width="32px" height="32px" viewBox="0 0 32 32" enable-background="new 0 0 32 32" xml:space="preserve">
<g>
	<path d="M22,5.8c-0.2,0.1-0.5,0.2-0.8,0.1c-0.5-0.1-1-0.4-1.2-0.9c-0.5,0.2-1,0.2-1.5-0.1c-0.4-0.3-0.7-0.8-0.6-1.3
		c-0.5,0-1-0.3-1.2-0.8c-0.3-0.5-0.2-1,0.1-1.5C16.3,1,16,0.6,16,0c0,0,0,0,0,0c0,0,0,0,0,0c-3.3,0-6,2.7-6,6v14c0,0.6,0.4,1,1,1h10
		c0.6,0,1-0.4,1-1V6C22,5.9,22,5.9,22,5.8z M14,19h-1V7h1V19z M19,19h-1V7h1V19z"/>
	<path d="M14,22v8c0,1.1,0.9,2,2,2c1.1,0,2-0.9,2-2v-8H14z"/>
</g>
</svg>
